<mxfile host="Electron" modified="2025-04-22T23:07:13.383Z" agent="Mozilla/5.0 (Windows NT 10.0; Win64; x64) AppleWebKit/537.36 (KHTML, like Gecko) draw.io/24.6.4 Chrome/124.0.6367.207 Electron/30.0.6 Safari/537.36" etag="qilZVJJAo9INkZ_UTmSS" version="24.6.4" type="device" pages="2">
  <diagram name="Page-1" id="0Eq1l1-dqngDptRMa4VF">
    <mxGraphModel dx="1434" dy="884" grid="0" gridSize="10" guides="1" tooltips="1" connect="1" arrows="1" fold="1" page="1" pageScale="1" pageWidth="850" pageHeight="1100" math="0" shadow="0">
      <root>
        <mxCell id="0" />
        <mxCell id="1" parent="0" />
        <mxCell id="GS5uqHkxDsomE2LMvnai-11" style="edgeStyle=orthogonalEdgeStyle;rounded=0;orthogonalLoop=1;jettySize=auto;html=1;" edge="1" parent="1" source="GS5uqHkxDsomE2LMvnai-1" target="GS5uqHkxDsomE2LMvnai-2">
          <mxGeometry relative="1" as="geometry">
            <Array as="points">
              <mxPoint x="344" y="208" />
              <mxPoint x="344" y="112" />
            </Array>
          </mxGeometry>
        </mxCell>
        <mxCell id="GS5uqHkxDsomE2LMvnai-12" style="edgeStyle=orthogonalEdgeStyle;rounded=0;orthogonalLoop=1;jettySize=auto;html=1;" edge="1" parent="1" source="GS5uqHkxDsomE2LMvnai-1" target="GS5uqHkxDsomE2LMvnai-3">
          <mxGeometry relative="1" as="geometry" />
        </mxCell>
        <mxCell id="GS5uqHkxDsomE2LMvnai-13" style="edgeStyle=orthogonalEdgeStyle;rounded=0;orthogonalLoop=1;jettySize=auto;html=1;" edge="1" parent="1" source="GS5uqHkxDsomE2LMvnai-1" target="GS5uqHkxDsomE2LMvnai-4">
          <mxGeometry relative="1" as="geometry">
            <Array as="points">
              <mxPoint x="342" y="208" />
              <mxPoint x="342" y="314" />
            </Array>
          </mxGeometry>
        </mxCell>
        <mxCell id="GS5uqHkxDsomE2LMvnai-1" value="" style="rounded=0;whiteSpace=wrap;html=1;" vertex="1" parent="1">
          <mxGeometry x="156" y="169" width="140" height="84" as="geometry" />
        </mxCell>
        <mxCell id="GS5uqHkxDsomE2LMvnai-8" style="edgeStyle=orthogonalEdgeStyle;rounded=0;orthogonalLoop=1;jettySize=auto;html=1;entryX=0;entryY=0.5;entryDx=0;entryDy=0;" edge="1" parent="1" source="GS5uqHkxDsomE2LMvnai-2" target="GS5uqHkxDsomE2LMvnai-7">
          <mxGeometry relative="1" as="geometry" />
        </mxCell>
        <mxCell id="GS5uqHkxDsomE2LMvnai-2" value="" style="sketch=0;outlineConnect=0;fontColor=#ffffff;fillColor=#0050ef;strokeColor=#001DBC;dashed=0;verticalLabelPosition=bottom;verticalAlign=top;align=center;html=1;fontSize=12;fontStyle=0;aspect=fixed;pointerEvents=1;shape=mxgraph.aws4.servers;" vertex="1" parent="1">
          <mxGeometry x="425" y="78" width="78" height="78" as="geometry" />
        </mxCell>
        <mxCell id="GS5uqHkxDsomE2LMvnai-9" style="edgeStyle=orthogonalEdgeStyle;rounded=0;orthogonalLoop=1;jettySize=auto;html=1;entryX=0;entryY=0.5;entryDx=0;entryDy=0;" edge="1" parent="1" source="GS5uqHkxDsomE2LMvnai-3" target="GS5uqHkxDsomE2LMvnai-7">
          <mxGeometry relative="1" as="geometry" />
        </mxCell>
        <mxCell id="GS5uqHkxDsomE2LMvnai-3" value="" style="sketch=0;outlineConnect=0;fontColor=#ffffff;fillColor=#0050ef;strokeColor=#001DBC;dashed=0;verticalLabelPosition=bottom;verticalAlign=top;align=center;html=1;fontSize=12;fontStyle=0;aspect=fixed;pointerEvents=1;shape=mxgraph.aws4.servers;" vertex="1" parent="1">
          <mxGeometry x="425" y="172" width="78" height="78" as="geometry" />
        </mxCell>
        <mxCell id="GS5uqHkxDsomE2LMvnai-10" style="edgeStyle=orthogonalEdgeStyle;rounded=0;orthogonalLoop=1;jettySize=auto;html=1;entryX=0;entryY=0.5;entryDx=0;entryDy=0;" edge="1" parent="1" source="GS5uqHkxDsomE2LMvnai-4" target="GS5uqHkxDsomE2LMvnai-7">
          <mxGeometry relative="1" as="geometry" />
        </mxCell>
        <mxCell id="GS5uqHkxDsomE2LMvnai-4" value="" style="sketch=0;outlineConnect=0;fontColor=#ffffff;fillColor=#0050ef;strokeColor=#001DBC;dashed=0;verticalLabelPosition=bottom;verticalAlign=top;align=center;html=1;fontSize=12;fontStyle=0;aspect=fixed;pointerEvents=1;shape=mxgraph.aws4.servers;" vertex="1" parent="1">
          <mxGeometry x="434" y="275" width="78" height="78" as="geometry" />
        </mxCell>
        <mxCell id="GS5uqHkxDsomE2LMvnai-7" value="" style="rounded=0;whiteSpace=wrap;html=1;" vertex="1" parent="1">
          <mxGeometry x="660" y="162" width="140" height="84" as="geometry" />
        </mxCell>
      </root>
    </mxGraphModel>
  </diagram>
  <diagram id="34-ONQotjOyBINf7GX05" name="Page-2">
    <mxGraphModel dx="1834" dy="1284" grid="0" gridSize="10" guides="1" tooltips="1" connect="1" arrows="1" fold="1" page="0" pageScale="1" pageWidth="850" pageHeight="1100" math="0" shadow="0">
      <root>
        <mxCell id="0" />
        <mxCell id="1" parent="0" />
        <mxCell id="eLOXa-Y31XRAosyDAWge-1" value="" style="rounded=0;whiteSpace=wrap;html=1;" parent="1" vertex="1">
          <mxGeometry x="282" y="36" width="407" height="273" as="geometry" />
        </mxCell>
        <mxCell id="dDT7XSoHLCVoSyEU_dHf-1" value="Actor" style="shape=umlActor;verticalLabelPosition=bottom;verticalAlign=top;html=1;outlineConnect=0;" parent="1" vertex="1">
          <mxGeometry x="76" y="142.5" width="30" height="60" as="geometry" />
        </mxCell>
        <mxCell id="eLOXa-Y31XRAosyDAWge-2" value="" style="image;sketch=0;aspect=fixed;html=1;points=[];align=center;fontSize=12;image=img/lib/mscae/Docker.svg;" parent="1" vertex="1">
          <mxGeometry x="634" y="299" width="50" height="41" as="geometry" />
        </mxCell>
        <mxCell id="eLOXa-Y31XRAosyDAWge-9" style="edgeStyle=orthogonalEdgeStyle;rounded=0;orthogonalLoop=1;jettySize=auto;html=1;entryX=0;entryY=0.5;entryDx=0;entryDy=0;" parent="1" source="eLOXa-Y31XRAosyDAWge-4" target="eLOXa-Y31XRAosyDAWge-5" edge="1">
          <mxGeometry relative="1" as="geometry" />
        </mxCell>
        <mxCell id="eLOXa-Y31XRAosyDAWge-10" style="edgeStyle=orthogonalEdgeStyle;rounded=0;orthogonalLoop=1;jettySize=auto;html=1;" parent="1" source="eLOXa-Y31XRAosyDAWge-4" target="eLOXa-Y31XRAosyDAWge-6" edge="1">
          <mxGeometry relative="1" as="geometry" />
        </mxCell>
        <mxCell id="eLOXa-Y31XRAosyDAWge-11" style="edgeStyle=orthogonalEdgeStyle;rounded=0;orthogonalLoop=1;jettySize=auto;html=1;" parent="1" source="eLOXa-Y31XRAosyDAWge-4" target="eLOXa-Y31XRAosyDAWge-7" edge="1">
          <mxGeometry relative="1" as="geometry" />
        </mxCell>
        <mxCell id="eLOXa-Y31XRAosyDAWge-12" style="edgeStyle=orthogonalEdgeStyle;rounded=0;orthogonalLoop=1;jettySize=auto;html=1;entryX=0;entryY=0.5;entryDx=0;entryDy=0;" parent="1" source="eLOXa-Y31XRAosyDAWge-4" target="eLOXa-Y31XRAosyDAWge-8" edge="1">
          <mxGeometry relative="1" as="geometry" />
        </mxCell>
        <mxCell id="eLOXa-Y31XRAosyDAWge-36" style="edgeStyle=orthogonalEdgeStyle;rounded=0;orthogonalLoop=1;jettySize=auto;html=1;" parent="1" source="eLOXa-Y31XRAosyDAWge-4" target="dDT7XSoHLCVoSyEU_dHf-1" edge="1">
          <mxGeometry relative="1" as="geometry">
            <mxPoint x="177" y="294" as="targetPoint" />
            <Array as="points">
              <mxPoint x="469" y="223" />
              <mxPoint x="178" y="223" />
              <mxPoint x="178" y="173" />
            </Array>
          </mxGeometry>
        </mxCell>
        <mxCell id="eLOXa-Y31XRAosyDAWge-4" value="Hadoop Master" style="rounded=0;whiteSpace=wrap;html=1;" parent="1" vertex="1">
          <mxGeometry x="428" y="134" width="82" height="77" as="geometry" />
        </mxCell>
        <mxCell id="eLOXa-Y31XRAosyDAWge-5" value="Data Node 1" style="rounded=0;whiteSpace=wrap;html=1;" parent="1" vertex="1">
          <mxGeometry x="578" y="64" width="74" height="44" as="geometry" />
        </mxCell>
        <mxCell id="eLOXa-Y31XRAosyDAWge-6" value="Data Node 2" style="rounded=0;whiteSpace=wrap;html=1;" parent="1" vertex="1">
          <mxGeometry x="578" y="115" width="74" height="44" as="geometry" />
        </mxCell>
        <mxCell id="eLOXa-Y31XRAosyDAWge-7" value="Data Node 3" style="rounded=0;whiteSpace=wrap;html=1;" parent="1" vertex="1">
          <mxGeometry x="575" y="171" width="74" height="44" as="geometry" />
        </mxCell>
        <mxCell id="eLOXa-Y31XRAosyDAWge-8" value="Data Node 4" style="rounded=0;whiteSpace=wrap;html=1;" parent="1" vertex="1">
          <mxGeometry x="575" y="229" width="74" height="44" as="geometry" />
        </mxCell>
        <mxCell id="eLOXa-Y31XRAosyDAWge-14" style="edgeStyle=orthogonalEdgeStyle;rounded=0;orthogonalLoop=1;jettySize=auto;html=1;entryX=0.5;entryY=0;entryDx=0;entryDy=0;" parent="1" source="eLOXa-Y31XRAosyDAWge-13" target="eLOXa-Y31XRAosyDAWge-4" edge="1">
          <mxGeometry relative="1" as="geometry" />
        </mxCell>
        <mxCell id="eLOXa-Y31XRAosyDAWge-13" value="odisea.txt" style="ellipse;shape=cloud;whiteSpace=wrap;html=1;" parent="1" vertex="1">
          <mxGeometry x="311" y="-69" width="106" height="72" as="geometry" />
        </mxCell>
        <mxCell id="eLOXa-Y31XRAosyDAWge-18" style="edgeStyle=orthogonalEdgeStyle;rounded=0;orthogonalLoop=1;jettySize=auto;html=1;entryX=0;entryY=0.5;entryDx=0;entryDy=0;" parent="1" source="eLOXa-Y31XRAosyDAWge-15" target="eLOXa-Y31XRAosyDAWge-17" edge="1">
          <mxGeometry relative="1" as="geometry" />
        </mxCell>
        <mxCell id="eLOXa-Y31XRAosyDAWge-20" style="edgeStyle=orthogonalEdgeStyle;rounded=0;orthogonalLoop=1;jettySize=auto;html=1;entryX=0;entryY=0.5;entryDx=0;entryDy=0;" parent="1" source="eLOXa-Y31XRAosyDAWge-15" target="eLOXa-Y31XRAosyDAWge-19" edge="1">
          <mxGeometry relative="1" as="geometry" />
        </mxCell>
        <mxCell id="eLOXa-Y31XRAosyDAWge-22" style="edgeStyle=orthogonalEdgeStyle;rounded=0;orthogonalLoop=1;jettySize=auto;html=1;entryX=0;entryY=0.5;entryDx=0;entryDy=0;" parent="1" source="eLOXa-Y31XRAosyDAWge-15" target="eLOXa-Y31XRAosyDAWge-21" edge="1">
          <mxGeometry relative="1" as="geometry" />
        </mxCell>
        <mxCell id="eLOXa-Y31XRAosyDAWge-24" style="edgeStyle=orthogonalEdgeStyle;rounded=0;orthogonalLoop=1;jettySize=auto;html=1;entryX=0;entryY=0.5;entryDx=0;entryDy=0;" parent="1" source="eLOXa-Y31XRAosyDAWge-15" target="eLOXa-Y31XRAosyDAWge-23" edge="1">
          <mxGeometry relative="1" as="geometry" />
        </mxCell>
        <mxCell id="eLOXa-Y31XRAosyDAWge-15" value="odisea&amp;nbsp;" style="rounded=0;whiteSpace=wrap;html=1;" parent="1" vertex="1">
          <mxGeometry x="-16" y="553" width="120" height="60" as="geometry" />
        </mxCell>
        <mxCell id="eLOXa-Y31XRAosyDAWge-16" value="" style="endArrow=none;html=1;rounded=0;" parent="1" edge="1">
          <mxGeometry width="50" height="50" relative="1" as="geometry">
            <mxPoint x="-201" y="380" as="sourcePoint" />
            <mxPoint x="812" y="378" as="targetPoint" />
          </mxGeometry>
        </mxCell>
        <mxCell id="eLOXa-Y31XRAosyDAWge-17" value="Part 1" style="rounded=0;whiteSpace=wrap;html=1;" parent="1" vertex="1">
          <mxGeometry x="209" y="470" width="87" height="46" as="geometry" />
        </mxCell>
        <mxCell id="eLOXa-Y31XRAosyDAWge-19" value="Part 2" style="rounded=0;whiteSpace=wrap;html=1;" parent="1" vertex="1">
          <mxGeometry x="207" y="533" width="89" height="46" as="geometry" />
        </mxCell>
        <mxCell id="eLOXa-Y31XRAosyDAWge-21" value="Part 3" style="rounded=0;whiteSpace=wrap;html=1;" parent="1" vertex="1">
          <mxGeometry x="208.5" y="596" width="86" height="51" as="geometry" />
        </mxCell>
        <mxCell id="eLOXa-Y31XRAosyDAWge-23" value="Part 4" style="rounded=0;whiteSpace=wrap;html=1;" parent="1" vertex="1">
          <mxGeometry x="209.5" y="668" width="86" height="51" as="geometry" />
        </mxCell>
        <mxCell id="eLOXa-Y31XRAosyDAWge-25" value="HDFS" style="rounded=0;whiteSpace=wrap;html=1;" parent="1" vertex="1">
          <mxGeometry x="-59" y="429" width="120" height="60" as="geometry" />
        </mxCell>
        <mxCell id="eLOXa-Y31XRAosyDAWge-27" style="edgeStyle=orthogonalEdgeStyle;rounded=0;orthogonalLoop=1;jettySize=auto;html=1;entryX=0.037;entryY=0.39;entryDx=0;entryDy=0;entryPerimeter=0;" parent="1" source="dDT7XSoHLCVoSyEU_dHf-1" target="eLOXa-Y31XRAosyDAWge-4" edge="1">
          <mxGeometry relative="1" as="geometry" />
        </mxCell>
        <mxCell id="eLOXa-Y31XRAosyDAWge-28" value="" style="endArrow=none;html=1;rounded=0;" parent="1" edge="1">
          <mxGeometry width="50" height="50" relative="1" as="geometry">
            <mxPoint x="332" y="771" as="sourcePoint" />
            <mxPoint x="335" y="417" as="targetPoint" />
          </mxGeometry>
        </mxCell>
        <mxCell id="eLOXa-Y31XRAosyDAWge-29" value="MAP REDUCE" style="rounded=0;whiteSpace=wrap;html=1;" parent="1" vertex="1">
          <mxGeometry x="398" y="423" width="120" height="60" as="geometry" />
        </mxCell>
        <mxCell id="eLOXa-Y31XRAosyDAWge-32" style="edgeStyle=orthogonalEdgeStyle;rounded=0;orthogonalLoop=1;jettySize=auto;html=1;" parent="1" source="eLOXa-Y31XRAosyDAWge-30" target="eLOXa-Y31XRAosyDAWge-31" edge="1">
          <mxGeometry relative="1" as="geometry" />
        </mxCell>
        <mxCell id="eLOXa-Y31XRAosyDAWge-30" value="(Ulises 1)&lt;br&gt;(Ulises 1)&lt;div&gt;(Troya 1)&lt;/div&gt;" style="rounded=0;whiteSpace=wrap;html=1;" parent="1" vertex="1">
          <mxGeometry x="373.5" y="502" width="169" height="68" as="geometry" />
        </mxCell>
        <mxCell id="eLOXa-Y31XRAosyDAWge-34" style="edgeStyle=orthogonalEdgeStyle;rounded=0;orthogonalLoop=1;jettySize=auto;html=1;entryX=0;entryY=0.5;entryDx=0;entryDy=0;" parent="1" source="eLOXa-Y31XRAosyDAWge-31" target="eLOXa-Y31XRAosyDAWge-33" edge="1">
          <mxGeometry relative="1" as="geometry">
            <Array as="points">
              <mxPoint x="583" y="656" />
              <mxPoint x="583" y="588" />
              <mxPoint x="587" y="588" />
              <mxPoint x="587" y="530" />
            </Array>
          </mxGeometry>
        </mxCell>
        <mxCell id="eLOXa-Y31XRAosyDAWge-31" value="" style="sketch=0;pointerEvents=1;shadow=0;dashed=0;html=1;strokeColor=none;fillColor=#005F4B;labelPosition=center;verticalLabelPosition=bottom;verticalAlign=top;align=center;outlineConnect=0;shape=mxgraph.veeam2.hdd;" parent="1" vertex="1">
          <mxGeometry x="550" y="638" width="28.000000000000004" height="35" as="geometry" />
        </mxCell>
        <mxCell id="eLOXa-Y31XRAosyDAWge-33" value="(Ulises 2)&lt;br&gt;&lt;div&gt;(Troya 1)&lt;/div&gt;" style="rounded=0;whiteSpace=wrap;html=1;" parent="1" vertex="1">
          <mxGeometry x="621" y="496" width="169" height="68" as="geometry" />
        </mxCell>
        <mxCell id="D_OmPbGL6XlKf7iKNIMM-1" value="" style="endArrow=none;html=1;rounded=0;" edge="1" parent="1">
          <mxGeometry width="50" height="50" relative="1" as="geometry">
            <mxPoint x="-206" y="815" as="sourcePoint" />
            <mxPoint x="827" y="813" as="targetPoint" />
          </mxGeometry>
        </mxCell>
        <mxCell id="D_OmPbGL6XlKf7iKNIMM-2" value="EC2" style="rounded=0;whiteSpace=wrap;html=1;" vertex="1" parent="1">
          <mxGeometry x="97" y="859" width="120" height="60" as="geometry" />
        </mxCell>
        <mxCell id="D_OmPbGL6XlKf7iKNIMM-3" value="S3" style="rounded=0;whiteSpace=wrap;html=1;" vertex="1" parent="1">
          <mxGeometry x="-193" y="838" width="120" height="60" as="geometry" />
        </mxCell>
        <mxCell id="D_OmPbGL6XlKf7iKNIMM-4" value="&lt;ol&gt;&lt;li&gt;Networking&lt;/li&gt;&lt;li&gt;Agregar Almacenamiento&lt;/li&gt;&lt;li&gt;Definir Sistema Operativo&lt;/li&gt;&lt;li&gt;Instalar Software para hacer la tarea&lt;/li&gt;&lt;/ol&gt;" style="rounded=0;whiteSpace=wrap;html=1;" vertex="1" parent="1">
          <mxGeometry x="261" y="830" width="224" height="104" as="geometry" />
        </mxCell>
        <mxCell id="D_OmPbGL6XlKf7iKNIMM-5" value="odisea&amp;nbsp;" style="rounded=0;whiteSpace=wrap;html=1;" vertex="1" parent="1">
          <mxGeometry x="-47" y="968" width="120" height="60" as="geometry" />
        </mxCell>
        <mxCell id="D_OmPbGL6XlKf7iKNIMM-6" value="" style="rounded=0;whiteSpace=wrap;html=1;" vertex="1" parent="1">
          <mxGeometry x="164" y="1139" width="452" height="209" as="geometry" />
        </mxCell>
        <mxCell id="D_OmPbGL6XlKf7iKNIMM-7" value="" style="endArrow=none;html=1;rounded=0;" edge="1" parent="1">
          <mxGeometry width="50" height="50" relative="1" as="geometry">
            <mxPoint x="-206" y="1103" as="sourcePoint" />
            <mxPoint x="827" y="1101" as="targetPoint" />
          </mxGeometry>
        </mxCell>
        <mxCell id="D_OmPbGL6XlKf7iKNIMM-8" value="Actor" style="shape=umlActor;verticalLabelPosition=bottom;verticalAlign=top;html=1;outlineConnect=0;" vertex="1" parent="1">
          <mxGeometry x="-51" y="1186" width="30" height="60" as="geometry" />
        </mxCell>
        <mxCell id="D_OmPbGL6XlKf7iKNIMM-9" value="odisea.txt" style="rounded=0;whiteSpace=wrap;html=1;" vertex="1" parent="1">
          <mxGeometry x="223" y="1206" width="105" height="49" as="geometry" />
        </mxCell>
        <mxCell id="D_OmPbGL6XlKf7iKNIMM-10" value="Inciado los Datanodes" style="rounded=0;whiteSpace=wrap;html=1;" vertex="1" parent="1">
          <mxGeometry x="458" y="1153" width="120" height="51" as="geometry" />
        </mxCell>
        <mxCell id="D_OmPbGL6XlKf7iKNIMM-11" value="Inciado el namenode" style="rounded=0;whiteSpace=wrap;html=1;" vertex="1" parent="1">
          <mxGeometry x="460" y="1217" width="120" height="51" as="geometry" />
        </mxCell>
        <mxCell id="D_OmPbGL6XlKf7iKNIMM-12" value="Iniciado yarn" style="rounded=0;whiteSpace=wrap;html=1;" vertex="1" parent="1">
          <mxGeometry x="460" y="1281" width="120" height="51" as="geometry" />
        </mxCell>
      </root>
    </mxGraphModel>
  </diagram>
</mxfile>
